<svg xmlns="http://www.w3.org/2000/svg" width="1200" height="660" viewBox="0 0 1200 660" role="img" aria-labelledby="title desc">
  <title id="title">Illustration of Enable full CDP access in Codex Browser settings</title>
  <desc id="desc">Codex Settings, Browser, Developer mode, Enable full CDP access is shown on. This is required by the course Zotero skill.</desc>
  <defs>
    <filter id="shadow" x="-20%" y="-20%" width="140%" height="140%"><feDropShadow dx="0" dy="12" stdDeviation="18" flood-color="#23324d" flood-opacity=".17"/></filter>
    <style>.ui{font-family:-apple-system,BlinkMacSystemFont,"Helvetica Neue",Arial,sans-serif;fill:#202a39}.muted{fill:#667286}.small{font-size:19px}.body{font-size:22px}.head{font-size:30px;font-weight:700}.cardhead{font-size:23px;font-weight:700}</style>
  </defs>
  <rect width="1200" height="660" fill="#edf3f8"/>
  <text class="ui muted small" x="68" y="42" letter-spacing="2">PSC SETUP ILLUSTRATION · LABELS MAY VARY BY APP VERSION</text>
  <rect x="60" y="70" width="1080" height="530" rx="22" fill="#fff" filter="url(#shadow)"/>
  <rect x="60" y="70" width="1080" height="62" rx="22" fill="#f8fafc"/>
  <rect x="60" y="112" width="1080" height="20" fill="#f8fafc"/>
  <circle cx="91" cy="101" r="8" fill="#f28b82"/><circle cx="116" cy="101" r="8" fill="#fbbc65"/><circle cx="141" cy="101" r="8" fill="#81c995"/>
  <text class="ui body" x="184" y="109" font-weight="650">Codex · Settings</text>
  <rect x="60" y="132" width="240" height="468" fill="#f3f6fa"/>
  <text class="ui muted small" x="92" y="181">SETTINGS</text>
  <text class="ui body" x="92" y="232">General</text>
  <rect x="78" y="263" width="204" height="51" rx="12" fill="#dceafb"/>
  <text class="ui body" x="98" y="297" font-weight="650">Browser</text>
  <text class="ui body" x="92" y="351">Computer Use</text>
  <text class="ui head" x="340" y="189">Browser</text>
  <text class="ui muted small" x="341" y="221">Browser data, site access, and developer controls</text>
  <text class="ui cardhead" x="340" y="285">Developer mode</text>
  <rect x="340" y="309" width="746" height="142" rx="14" fill="#f8fbff" stroke="#4389d9" stroke-width="3"/>
  <text class="ui cardhead" x="365" y="354">Enable full CDP access</text>
  <text class="ui small muted" x="365" y="387">Allow Codex to use Chrome DevTools Protocol</text>
  <text class="ui small muted" x="365" y="414">in connected Browser Use sessions.</text>
  <rect x="976" y="340" width="78" height="42" rx="21" fill="#2879d0"/>
  <circle cx="1031" cy="361" r="16" fill="#fff"/>
  <text class="ui small" x="981" y="413" fill="#17558f">ON</text>
  <rect x="340" y="481" width="746" height="84" rx="13" fill="#e8f5ec" stroke="#b7dbc0"/>
  <text class="ui cardhead" x="365" y="516">Why the workshop needs this</text>
  <text class="ui small" x="365" y="545">Codex briefly adds a save link on the publisher page, then clicks it.</text>
  <text class="ui muted small" x="68" y="636">PATH: SETTINGS → BROWSER → DEVELOPER MODE</text>
</svg>
